PathFileType	4	(X/Y/Z)	58_2_81_p0_0-169_filt_butterworth.trc
DataRate	CameraRate	NumFrames	NumMarkers	Units	OrigDataRate	OrigDataStartFrame	OrigNumFrames
48.0	48.0	7	27	m	48.0	126	169
Frame#	Time	RHip			RKnee			RAnkle			RBigToe			RSmallToe			RHeel			LHip			LKnee			LAnkle			LBigToe			LSmallToe			LHeel			Neck			Head			Nose			RShoulder			RElbow			RWrist			RThumb			RIndex			RPinky			LShoulder			LElbow			LWrist			LThumb			LIndex			LPinky			
		X1	Y1	Z1	X2	Y2	Z2	X3	Y3	Z3	X4	Y4	Z4	X5	Y5	Z5	X6	Y6	Z6	X7	Y7	Z7	X8	Y8	Z8	X9	Y9	Z9	X10	Y10	Z10	X11	Y11	Z11	X12	Y12	Z12	X13	Y13	Z13	X14	Y14	Z14	X15	Y15	Z15	X16	Y16	Z16	X17	Y17	Z17	X18	Y18	Z18	X19	Y19	Z19	X20	Y20	Z20	X21	Y21	Z21	X22	Y22	Z22	X23	Y23	Z23	X24	Y24	Z24	X25	Y25	Z25	X26	Y26	Z26	X27	Y27	Z27	
126	2.625	0.336854238869407	0.7280930534610749	0.6739069641139476	0.3153539646367661	0.2999364005153726	0.7054550471532949	0.31435754261195015	-0.1266273449525545	0.7421371019551308	0.28929363979867323	-0.12210524667607536	0.5617582612175601	0.3465072763273112	-0.12326283539931934	0.5818042799120546	0.2929185128230908	-0.20920585242374393	0.8142718626859761	0.14154373760912328	0.7068627529827038	0.7189694852939519	0.14052978404382338	0.2916640364360738	0.7482054975283204	0.12725552980189403	-0.11366503747099345	0.7377493054693416	0.12984639110409987	-0.11063252327953355	0.5586059758665176	0.07833221295457189	-0.1235714747948797	0.5999711098916904	0.14878122768952087	-0.17844712486992118	0.7791598702112982	0.23579301760778298	1.281771789026897	0.7751734742494802	0.23387265392020912	1.5175279982625456	0.7562375766206328	0.22470524232749695	1.4124710817282757	0.6772412641938741	0.381986676190102	1.1976042049264746	0.7711083158651502	0.44158798931999177	0.9357519701979552	0.7915467105741621	0.3459924264179779	0.9188352309550696	0.5495446934186898	0.2658799675299682	0.9103190462220999	0.49879672459942687	0.2659664009557343	0.9064831862264684	0.4735587458681567	0.28717747201469557	0.8844674461780626	0.4521296784371015	0.072942351334013	1.202921296083922	0.7614620244037598	-0.010886019898727301	0.9394070381739901	0.7766290385977129	0.10382174326158708	0.8944676769403347	0.5571440917742547	0.18458865621277312	0.885934747899156	0.5003418789332617	0.18971749218341757	0.8745633885743399	0.45462977959301126	0.16520059818905708	0.8293094939815064	0.4784380275478775	
127	2.645833333333333	0.33759582767454654	0.727761440785883	0.675623951502859	0.3152026741649674	0.2972355257851913	0.7059849654595238	0.3145600446140172	-0.12797641553450215	0.743197421228275	0.28985939106733694	-0.12362180463578248	0.5633780696292261	0.3470523156046179	-0.1237337879642667	0.5830228609975149	0.29323998759253206	-0.20990959474388876	0.8155193648696878	0.14123752231432174	0.7058991752600448	0.7199675497956192	0.14043267102577275	0.28999472313591035	0.7484437775935141	0.1272494407219952	-0.11402678472162196	0.7377484324879574	0.12995703968205474	-0.11051841485388747	0.5593518847662463	0.07812027710239788	-0.12466907089532844	0.5999188373768305	0.14872551276202825	-0.17849692794281583	0.7792421402914673	0.23582261022673817	1.2814856364201876	0.7750872817508959	0.23384013445942345	1.517027992427834	0.7561670495286039	0.2244529067433958	1.4126652384253733	0.6762426298548807	0.38197664790609376	1.1970454318029224	0.770694605628608	0.4408832796977912	0.9336204257659825	0.7869459610189378	0.33950794403276974	0.9072264092558341	0.5512225300582464	0.2618518536043174	0.896065036790128	0.49326564502796344	0.2584223468768012	0.891451139164543	0.4684897193112591	0.2769002686301323	0.8726582801915918	0.4497935278107387	0.07240808573310673	1.2032073061747777	0.7589994984784039	-0.00936829656695611	0.9386358596558826	0.7722326607548353	0.10739743854566233	0.8847273513740069	0.5557648710444025	0.18933459342771625	0.8702500513284165	0.502045045424345	0.19266202680936684	0.8568283625090153	0.455312575065983	0.16670768600513414	0.8159420309539743	0.4777413403504965	
128	2.6666666666666665	0.3380459347004832	0.727280094828786	0.6785903513813256	0.3152184106386595	0.2947709865912688	0.7069765137581708	0.3149198671988591	-0.1291675116255464	0.7443902694456336	0.29009983390039323	-0.12477651596544771	0.5639513629725028	0.34767447083532	-0.12440767658819697	0.5849223622704951	0.2936696015586752	-0.21073452643255494	0.817181118166693	0.14112230518078733	0.7059398758991787	0.7206654073744602	0.14035052458426386	0.2886184650947401	0.7486475242310446	0.12722177677631263	-0.11431624523802285	0.7377169035994774	0.13003796356493696	-0.10979043433740773	0.5604021868559799	0.07798908193597738	-0.1253019567592859	0.5998985499629775	0.14866465564291656	-0.178395601663995	0.7794126062349813	0.23582830248590916	1.2815198961479854	0.7751534513860991	0.23382155796588416	1.5169317924856933	0.7561243634503978	0.22443187005611137	1.4126933592023903	0.6760697831216594	0.3818797219248543	1.1963759590230512	0.7706500789777416	0.4403217460611862	0.929763240049378	0.7813813506647729	0.3310786234016208	0.8922973864633382	0.5516120248979637	0.25580082954591915	0.8800956040824055	0.48683819457661015	0.24854914945577533	0.8743456703912575	0.46261907266983326	0.2630226757507965	0.8588593222527018	0.4490548281637284	0.07197049941936168	1.203169259814853	0.7568797649920309	-0.00690635872709368	0.9376556354886655	0.7665181321350194	0.11120666324285654	0.8761953286120122	0.5539642773733261	0.19373804219411617	0.856521754510021	0.5047123585665397	0.19543405439758765	0.8405695690171661	0.46004276249248777	0.1684103259882166	0.804259807953158	0.47782689648314314	
129	2.6875	0.33813097986260504	0.7265314452858072	0.6826481986255142	0.31551061578322365	0.2924668143683292	0.7083463125352	0.31543606704795835	-0.13026771655861746	0.7456731340136944	0.28999936752199035	-0.12545811392260323	0.5635040101434174	0.34831903649586426	-0.12517751702404584	0.5871725503489941	0.29413447237827733	-0.21153066653876904	0.818933203056222	0.14115584597748188	0.7066919535840919	0.7211911726000031	0.1402893549279539	0.2875963768426443	0.7488134185135159	0.12716640654386	-0.11453427717714333	0.7376581324255789	0.12996409115547014	-0.10842550145877392	0.5607080254792716	0.07798417129541985	-0.1252407452500947	0.5998936689100433	0.1485866873622207	-0.17807321610011245	0.7796320830115893	0.2358184145212831	1.2817224733671355	0.7752662625449782	0.2338152253126519	1.5172630906252929	0.7561184914514658	0.2245379925265258	1.4126192591147253	0.6764038830042143	0.3817315955540221	1.1956005331827937	0.7709608174232419	0.43944609759353415	0.9246615633430362	0.775052274471242	0.32103627376945887	0.8753379468982008	0.5497194088619098	0.24802360940636878	0.8614435392287972	0.4807397236930287	0.23724189344883295	0.8537530569929679	0.45873126783061646	0.2480597355598762	0.841439017451885	0.45064097238538114	0.0716615805345477	1.2028572017454056	0.7552777173428142	-0.0032101597714543064	0.9374422648550584	0.7593247574626181	0.11539678531028266	0.8690124754290487	0.5517275752763086	0.19883850397522523	0.8437398722766283	0.5072086191947436	0.19896133335674754	0.8261481864027113	0.46657085909899637	0.17035487646211495	0.7935315132224613	0.47787837165682284	
130	2.708333333333333	0.3379249538706543	0.7256176791883677	0.6877120608537652	0.3160980833694835	0.2902895637862616	0.7099396669434433	0.31609232929788805	-0.13129684433791944	0.7469933944566728	0.2898089283976219	-0.12576735773350245	0.5629865180678328	0.34897329118886555	-0.1259508588263403	0.5895046722375283	0.29456259329075146	-0.21226653027217263	0.82050764400764	0.14123586940533567	0.7078772949282969	0.7217649952359222	0.14026919113910358	0.28697402459352284	0.7488975344564818	0.127071114195738	-0.11465875812589608	0.7375754037820944	0.1296840871009327	-0.10631615917538446	0.5594785311050914	0.07810368076185024	-0.12451962271095203	0.5998748372987802	0.1484730560356088	-0.17750785123879512	0.7798249321836559	0.23580973109021863	1.2818020404073418	0.7753094553756844	0.23381850396784776	1.5178433093496935	0.7561333385670734	0.22462484778788347	1.4125467822772726	0.6767254735003885	0.3816879718879743	1.1947351928457084	0.7713306172474172	0.4379133175673191	0.9193883620189551	0.7676667084833549	0.31050302451911205	0.8585085464917173	0.5451011846727951	0.23937327157230917	0.8413593334298289	0.4758336121506185	0.226278028688705	0.8298096027663829	0.4582062499211499	0.23458276255989774	0.8209695757473059	0.4538984785164788	0.07154387992642362	1.2022488139305392	0.7544807404468736	0.001536885453836787	0.9383024424385766	0.7504716440416916	0.1199466872235041	0.863006583591681	0.5494399170659832	0.2049045863266139	0.8319323791115056	0.5086219764787279	0.203622908683871	0.8140433337055496	0.4718958601293337	0.17276866170035599	0.782828547092445	0.47831046241928676	
131	2.7291666666666665	0.3376189524775716	0.7248392691996146	0.693378933495244	0.3169444006681006	0.2883758171961638	0.7115903393707939	0.3168449042688787	-0.13221980248441836	0.7482874923516817	0.2898293567696034	-0.1259285755602556	0.5634091442346397	0.3494757791934697	-0.12660153226063256	0.5916311226499343	0.29494753466548185	-0.21299220013876413	0.8218733508665775	0.14128624648926447	0.7094522043365157	0.7224014135615591	0.14031878153503893	0.28681664125133643	0.7488650495375718	0.12693702870916307	-0.11465970730989791	0.7374865261525585	0.12921964444973855	-0.10383044938300995	0.5569457926340841	0.07829856274357734	-0.12340110300279841	0.5998020045982853	0.1483257141983278	-0.17682329632429042	0.7799594071567172	0.23580814948444234	1.2816212915737184	0.7752505482972489	0.2338261315014681	1.5185550126088467	0.7561620655096719	0.2246388775686421	1.412519069397486	0.6768211591990423	0.3818774607060686	1.1940194332131868	0.7710723691991181	0.435770021947273	0.9145530195153911	0.7593037291830717	0.3008347534422613	0.8427249951606467	0.538808870226013	0.23047929370459222	0.8218313050028891	0.47299638316257764	0.21701620419110884	0.803960038004954	0.4614787222397936	0.22461134803726962	0.7992449522198106	0.45802087935668956	0.07166284608305981	1.2013325474130014	0.7547134952122452	0.007041407177118505	0.9398269601214744	0.7402640441955389	0.12473936686306189	0.8576622637111191	0.5474340807302782	0.21101742546943497	0.8213576031801176	0.5090680392478671	0.20862440194590598	0.8040112659223562	0.4751202645922059	0.175780451500675	0.7713833519514577	0.4800203906199214	
132	2.75	0.33735486102785667	0.7245640019056729	0.6988634949275928	0.3179819641689366	0.28690924152099156	0.7132163599733156	0.3176417805530469	-0.13299908021192836	0.7495132970415477	0.29012409101693093	-0.12614341276562444	0.5648770920443953	0.3495186024617932	-0.12696727460783436	0.5931718171960146	0.2953250513100046	-0.21376500420193595	0.8231344203171029	0.14136511270499252	0.7115308788167962	0.7228719575049846	0.1404670569920072	0.28724490413650955	0.7487729443300726	0.1268107186274546	-0.1145349386465929	0.7374358639999123	0.1286619981632738	-0.10190273242456366	0.5540978580420663	0.07850720014717064	-0.12223053550941737	0.5996682767101811	0.14817378998957229	-0.17619654380627195	0.7800781001626574	0.23580902559028274	1.2811883871684466	0.7751076530033536	0.23383279055688094	1.519398681888446	0.7562197605513963	0.2246114408275178	1.4125198476514722	0.67678966048249	0.38215778962216995	1.1937670404475034	0.7697632304127198	0.43318610742509134	0.9103847289279322	0.7505271375030176	0.2931301276507035	0.8277344105402246	0.5333146277294221	0.22165459104943946	0.8046534313891923	0.4733361184081485	0.2098945961566298	0.7785291794938964	0.4685733656149812	0.21901174072577012	0.7774076878788709	0.4635786497118196	0.07198218525722344	1.20031150468988	0.7558836000624303	0.013177227138574802	0.9417167508443164	0.7291863328613366	0.12965490819973757	0.8526751530048352	0.5454878597594403	0.2159632657050049	0.8123462881900191	0.5092434154943706	0.21281741804928475	0.794854058955639	0.4778738114189418	0.1793603822223782	0.7591392386341308	0.48348095210763525	
